# xmcd
#
# Track frame offsets:
#	150
#	17619
#	31615
#	44544
#	61861
#	84717
#	101146
#	117732
#	138498
#	156303
#	169888
#	184632
#
# Disc length: 2799 seconds
# Revision: 1
# Processed by: cddbd v1.5.2PL0 Copyright (c) Steve Scherf et al.
# Submitted via: dBpowerAMP V12.0
#
DISCID=a00aed0c
DTITLE=Fleetwood Mac - Perfect Days: Live and Studio Recordings
DYEAR=2008
DGENRE=Rock
TTITLE0=Crazy About You (Can't Hold out Much Longer)
TTITLE1=Down at the Crown
TTITLE2=Tell Me All the Things You Do
TTITLE3=Station Man
TTITLE4=Purple Dancer
TTITLE5=One Together
TTITLE6=I Can't Stop Loving Her
TTITLE7=Lonely Without You
TTITLE8=Jewel-Eyed Judy
TTITLE9=Open the Door
TTITLE10=Don't Go Please Stay
TTITLE11=Honey Hush
EXTD=
EXTT0=
EXTT1=
EXTT2=
EXTT3=
EXTT4=
EXTT5=
EXTT6=
EXTT7=
EXTT8=
EXTT9=
EXTT10=
EXTT11=
PLAYORDER=
